<svg xmlns="http://www.w3.org/2000/svg" xmlns:xlink="http://www.w3.org/1999/xlink" viewBox="0 0 485.61 130.08"><defs><style>.LogoAvianca_cls-1{fill:none;}.LogoAvianca_cls-2{clip-path:url(#clip-path);}.LogoAvianca_cls-3{fill:#e30613;}.LogoAvianca_cls-4{fill:#099b39;}.LogoAvianca_cls-5{fill:#fedf0d;}</style><clipPath transform="translate(-13.11)"><rect class="LogoAvianca_cls-1" width="498.72" height="128.85"/></clipPath></defs><title>logo_avianca_2</title><g data-name="Camada 2"><g data-name="Camada 1"><g class="LogoAvianca_cls-2"><path class="LogoAvianca_cls-3" d="M143.63,29.45a8.47,8.47,0,1,1,8.73-8.52,8.62,8.62,0,0,1-8.73,8.52" transform="translate(-13.11)"/><path class="LogoAvianca_cls-3" d="M143.63,29.45a8.47,8.47,0,1,1,8.73-8.52,8.62,8.62,0,0,1-8.73,8.52" transform="translate(-13.11)"/></g><polygon class="LogoAvianca_cls-3" points="138.1 91.46 122.95 91.46 122.95 35.63 138.1 35.63 138.1 86.08 138.1 91.46"/><g class="LogoAvianca_cls-2"><path class="LogoAvianca_cls-3" d="M301.8,92.62c-8.55,0-15.68-3-20.58-8.54-4.47-5.08-6.94-12.28-6.94-20.25a29.73,29.73,0,0,1,8.22-21.08,28.56,28.56,0,0,1,20.68-8.38,31.92,31.92,0,0,1,16.25,4.1L318.92,51a23.68,23.68,0,0,0-14.12-4.67c-8.9,0-15.36,7.09-15.36,16.85,0,7.84,4,17,15.24,17a26.53,26.53,0,0,0,13.2-4l4,10.77c-4,2.77-12,5.76-20.05,5.76" transform="translate(-13.11)"/><path class="LogoAvianca_cls-3" d="M40.27,59.72H56.85L51,43.2c-.93-2.54-1.69-4.92-2.28-7.08-.53,2-1.3,4.2-2.24,6.85Zm45,31.75H69.2l-7.49-19H35.51l-7,19H13.11l30-77.64h11Z" transform="translate(-13.11)"/><path class="LogoAvianca_cls-3" d="M131.47,35.63H116.31L102.82,71.81,89.55,35.63H74.28L94.68,85.4c1.53,3.85,3.88,6.07,8.3,6.07h5.27Z" transform="translate(-13.11)"/><path class="LogoAvianca_cls-3" d="M191.22,66.47l-7.16.22c-9.14.27-10.2,4-10.2,6.7,0,4.37,3.08,7,8.22,7a13.87,13.87,0,0,0,9.14-3.1Zm-14,26.14c-10.9,0-18.53-7.47-18.53-18.18,0-11.27,8.56-18,23.47-18.52l9.05-.33v-.74c0-7.06-5.47-8.55-10.06-8.55s-9,1.37-13.95,4.34l-5.13-9.83a40,40,0,0,1,22.19-6.43c15,0,22.34,6.7,22.34,20.47V80.36a37.89,37.89,0,0,0,1.28,11.11h-8.75c-3.72,0-5.17-1.49-6.29-4.48a23.13,23.13,0,0,1-15.62,5.62" transform="translate(-13.11)"/><path class="LogoAvianca_cls-3" d="M357.62,66.47l-7.17.22c-9.13.27-10.19,4-10.19,6.7,0,4.37,3.07,7,8.21,7a13.9,13.9,0,0,0,9.15-3.1Zm-14,26.14c-10.89,0-18.52-7.47-18.52-18.18,0-11.27,8.55-18,23.47-18.52l9.05-.33v-.74c0-7.06-5.48-8.55-10.06-8.55s-9,1.37-14,4.34l-5.12-9.83a39.94,39.94,0,0,1,22.19-6.43c15,0,22.34,6.7,22.34,20.47V80.36a37.94,37.94,0,0,0,1.27,11.11h-8.74c-3.73,0-5.18-1.49-6.29-4.48a23.17,23.17,0,0,1-15.63,5.62" transform="translate(-13.11)"/><path class="LogoAvianca_cls-3" d="M267.54,91.46H252.38V58.76c0-7.74-2.29-11.2-7.42-11.2-4,0-8.29,1.77-13.17,5.43V91.46H216.63V35.63h5.8c4.41,0,7.17,1.69,8.43,5.15l.08.3c6.44-4.65,12.26-6.71,18.75-6.71,8.63,0,17.85,5.32,17.85,20.24Z" transform="translate(-13.11)"/><path class="LogoAvianca_cls-3" d="M476.53,89.85c-1.87-5.78-7.75-10.26-28.42-11.83a145.54,145.54,0,0,0,10.42,10.92H469c4.35,0,6.26.36,7.49.91" transform="translate(-13.11)"/><path class="LogoAvianca_cls-3" d="M397.2,30.19c-1,22.37,11,44.92,50.53,47.8l.38,0c-20.06-23.31-33.6-53.15-39-78,0,0-11,9.72-11.89,30.19" transform="translate(-13.11)"/><path class="LogoAvianca_cls-3" d="M458.53,88.94H416.08c.56,1.32,2.52,2.25,6.94,2.51,26.5,1.58,30.26,22.38,68.19,22.38a38.39,38.39,0,0,0,7.51-.59c-15-4.61-28.46-13.27-40.19-24.3" transform="translate(-13.11)"/></g><polygon class="LogoAvianca_cls-3" points="138.1 91.46 122.95 91.46 122.95 35.63 138.1 35.63 138.1 86.08 138.1 91.46"/><g class="LogoAvianca_cls-2"><path class="LogoAvianca_cls-3" d="M301.8,92.62c-8.55,0-15.68-3-20.58-8.54-4.47-5.08-6.94-12.28-6.94-20.25a29.73,29.73,0,0,1,8.22-21.08,28.56,28.56,0,0,1,20.68-8.38,31.92,31.92,0,0,1,16.25,4.1L318.92,51a23.68,23.68,0,0,0-14.12-4.67c-8.9,0-15.36,7.09-15.36,16.85,0,7.84,4,17,15.24,17a26.53,26.53,0,0,0,13.2-4l4,10.77c-4,2.77-12,5.76-20.05,5.76" transform="translate(-13.11)"/><path class="LogoAvianca_cls-3" d="M40.27,59.72H56.85L51,43.2c-.93-2.54-1.69-4.92-2.28-7.08-.53,2-1.3,4.2-2.24,6.85Zm45,31.75H69.2l-7.49-19H35.51l-7,19H13.11l30-77.64h11Z" transform="translate(-13.11)"/><path class="LogoAvianca_cls-3" d="M131.47,35.63H116.31L102.82,71.81,89.55,35.63H74.28L94.68,85.4c1.53,3.85,3.88,6.07,8.3,6.07h5.27Z" transform="translate(-13.11)"/><path class="LogoAvianca_cls-3" d="M191.22,66.47l-7.16.22c-9.14.27-10.2,4-10.2,6.7,0,4.37,3.08,7,8.22,7a13.87,13.87,0,0,0,9.14-3.1Zm-14,26.14c-10.9,0-18.53-7.47-18.53-18.18,0-11.27,8.56-18,23.47-18.52l9.05-.33v-.74c0-7.06-5.47-8.55-10.06-8.55s-9,1.37-13.95,4.34l-5.13-9.83a40,40,0,0,1,22.19-6.43c15,0,22.34,6.7,22.34,20.47V80.36a37.89,37.89,0,0,0,1.28,11.11h-8.75c-3.72,0-5.17-1.49-6.29-4.48a23.13,23.13,0,0,1-15.62,5.62" transform="translate(-13.11)"/><path class="LogoAvianca_cls-3" d="M357.62,66.47l-7.17.22c-9.13.27-10.19,4-10.19,6.7,0,4.37,3.07,7,8.21,7a13.9,13.9,0,0,0,9.15-3.1Zm-14,26.14c-10.89,0-18.52-7.47-18.52-18.18,0-11.27,8.55-18,23.47-18.52l9.05-.33v-.74c0-7.06-5.48-8.55-10.06-8.55s-9,1.37-14,4.34l-5.12-9.83a39.94,39.94,0,0,1,22.19-6.43c15,0,22.34,6.7,22.34,20.47V80.36a37.94,37.94,0,0,0,1.27,11.11h-8.74c-3.73,0-5.18-1.49-6.29-4.48a23.17,23.17,0,0,1-15.63,5.62" transform="translate(-13.11)"/><path class="LogoAvianca_cls-3" d="M267.54,91.46H252.38V58.76c0-7.74-2.29-11.2-7.42-11.2-4,0-8.29,1.77-13.17,5.43V91.46H216.63V35.63h5.8c4.41,0,7.17,1.69,8.43,5.15l.08.3c6.44-4.65,12.26-6.71,18.75-6.71,8.63,0,17.85,5.32,17.85,20.24Z" transform="translate(-13.11)"/><path class="LogoAvianca_cls-3" d="M476.53,89.85c-1.87-5.78-7.75-10.26-28.42-11.83a145.54,145.54,0,0,0,10.42,10.92H469c4.35,0,6.26.36,7.49.91" transform="translate(-13.11)"/><path class="LogoAvianca_cls-3" d="M397.2,30.19c-1,22.37,11,44.92,50.53,47.8l.38,0c-20.06-23.31-33.6-53.15-39-78,0,0-11,9.72-11.89,30.19" transform="translate(-13.11)"/><path class="LogoAvianca_cls-3" d="M458.53,88.94H416.08c.56,1.32,2.52,2.25,6.94,2.51,26.5,1.58,30.26,22.38,68.19,22.38a38.39,38.39,0,0,0,7.51-.59c-15-4.61-28.46-13.27-40.19-24.3" transform="translate(-13.11)"/></g><path class="LogoAvianca_cls-3" d="M13.11,107.78h14v2.09H15.78v7.6H26.05v2H15.78v8.12H27.62v2.08H13.11Z" transform="translate(-13.11)"/><path class="LogoAvianca_cls-3" d="M37.83,107.78h2.64l8,11,8-11h2.64v21.91H56.67V111.5l-7.4,10.07H47.71L40.34,111.5v18.19H37.83Z" transform="translate(-13.11)"/><path class="LogoAvianca_cls-3" d="M84,107.78h8.34c4.14,0,7.08,2.71,7.08,6.56a6.09,6.09,0,0,1-5.51,6.26l6.39,9.09h-3l-6-8.7h-4.7v8.7H84Zm2.6,11.09h5.35c2.84,0,4.83-1.8,4.83-4.47s-2-4.5-4.83-4.5H86.57Z" transform="translate(-13.11)"/><path class="LogoAvianca_cls-3" d="M110.41,107.78h14v2.09H113.09v7.6h10.27v2H113.09v8.12h11.83v2.08H110.41Z" transform="translate(-13.11)"/><path class="LogoAvianca_cls-3" d="M144.06,129.69h-2.51l-9-21.91h2.84l7.43,18.59,7.47-18.59h2.83Z" transform="translate(-13.11)"/><path class="LogoAvianca_cls-3" d="M162.23,107.78h2.67v21.91h-2.67Z" transform="translate(-13.11)"/><path class="LogoAvianca_cls-3" d="M182.8,107.39a19.13,19.13,0,0,1,7,1.47l-.65,2.08a16.44,16.44,0,0,0-6.16-1.36c-3.13,0-5.22,1.46-5.22,3.68,0,5.87,12.81,2.54,12.81,10.82,0,3.56-3.16,6-7.79,6a21.15,21.15,0,0,1-7.79-1.72l.65-2.09a20.22,20.22,0,0,0,7,1.63c3.22,0,5.31-1.53,5.31-3.82,0-6-12.78-2.73-12.78-10.82C175.14,109.8,178.27,107.39,182.8,107.39Z" transform="translate(-13.11)"/><path class="LogoAvianca_cls-3" d="M205.37,109.9H197.8v-2.12h17.8v2.12H208v19.79h-2.67Z" transform="translate(-13.11)"/><path class="LogoAvianca_cls-3" d="M228.75,107.78h2.51l9,21.91h-2.74l-2.41-6H224.87l-2.42,6h-2.74Zm-3.13,13.86h8.73L230,110.85Z" transform="translate(-13.11)"/><rect class="LogoAvianca_cls-4" x="258.65" y="110.97" width="7.13" height="7.13" transform="translate(-17.3 218.96) rotate(-45)"/><rect class="LogoAvianca_cls-4" x="253.6" y="116.02" width="7.13" height="7.13" transform="translate(-22.34 216.87) rotate(-45)"/><rect class="LogoAvianca_cls-5" x="258.66" y="121.08" width="7.13" height="7.13" transform="translate(-24.44 221.93) rotate(-45)"/></g></g></svg>