<svg xmlns="http://www.w3.org/2000/svg" xmlns:xlink="http://www.w3.org/1999/xlink" viewBox="-5496 -8950.001 180.001 43.591">
  <defs>
    <style>
      .LogoPraViajar-1 {
        fill: url(#LogoPraViajar);
      }
    </style>
    <linearGradient id="LogoPraViajar" y1="-0.297" x2="1.039" y2="1.067" gradientUnits="objectBoundingBox">
      <stop offset="0" stop-color="#fa346f"/>
      <stop offset="0.517" stop-color="#fb5150"/>
      <stop offset="1" stop-color="#fb6936"/>
    </linearGradient>
  </defs>
  <g data-name="Symbol 1" transform="translate(-5564.11 -9214.613)">
    <path data-name="Union 6" class="LogoPraViajar-1" d="M5564.179,9219.38a4.39,4.39,0,0,1,1.68-3.706,6.461,6.461,0,0,1,3.869-1.016l4.858-.046h.093c4.029,0,7.208,1.176,9.464,3.5,2.279,2.326,3.455,6.4,3.478,12.09.021,5.8-.83,9.993-2.533,12.433-2.119,3.063-5.941,4.631-11.375,4.675l-3.042.047.046,10.822-6.608.023Zm8.567-1.036a2.475,2.475,0,0,0-1.406.623,2.187,2.187,0,0,0-.669,1.54l.093,21.256,2.1-.047c3.179-.023,5.458-1.152,6.815-3.386.992-1.473,1.476-4.212,1.452-8.4-.023-3.546-.346-6.012-.967-7.484-1.2-2.739-3.548-4.122-7-4.122h-.07Zm111.173,38.891-.023-4.6a21.67,21.67,0,0,0,4.145-.256,7.112,7.112,0,0,0,2.97-1.334c1.866-1.312,2.809-3.639,2.786-6.863l-.137-29.45,6.285-.023.14,30.949c.023,4.052-1.336,7.114-4.008,9.164-2.218,1.605-5.833,2.437-10.792,2.437Q5684.618,9257.255,5683.919,9257.234Zm-74.678-11.327c-1.842-1.565-2.763-4.515-2.786-8.75-.023-3.639.876-6.287,2.649-7.83a8.55,8.55,0,0,1,5.825-1.866l5.941-.067-.023-2.9a5.309,5.309,0,0,0-1.083-3.521,4.84,4.84,0,0,0-4.029-1.659h-.046l-6.838.069-.023-4.651,9.394-.07h.046a8.693,8.693,0,0,1,6.564,2.419c1.566,1.612,2.349,4.169,2.37,7.577l.093,17.521a5.5,5.5,0,0,1-1.173,3.962c-.783.783-2.212,1.2-4.261,1.2l-6.861.069C5612.4,9247.4,5610.417,9246.921,5609.241,9245.907Zm7.9-13.815a3.746,3.746,0,0,0-3.155,1.357,6.537,6.537,0,0,0-.922,3.984c0,1.956.393,3.292,1.2,4.143a3.846,3.846,0,0,0,2.81,1.176h.023l1.127-.046a3.249,3.249,0,0,0,2.005-.53,2.31,2.31,0,0,0,.69-1.819l-.046-8.334Zm89.021,13.77c-1.842-1.566-2.763-4.513-2.786-8.751-.023-3.639.876-6.287,2.648-7.83a8.546,8.546,0,0,1,5.825-1.863l5.941-.069-.023-2.9a5.327,5.327,0,0,0-1.083-3.522,4.809,4.809,0,0,0-4.029-1.659h-.046l-6.838.07-.023-4.652,9.394-.069h.07a8.773,8.773,0,0,1,6.562,2.419c1.566,1.612,2.349,4.168,2.372,7.574l.07,17.523a5.4,5.4,0,0,1-1.152,3.962c-.783.783-2.21,1.176-4.282,1.2l-6.861.07C5709.317,9247.357,5707.337,9246.874,5706.162,9245.861Zm7.9-13.816a3.746,3.746,0,0,0-3.153,1.357,6.539,6.539,0,0,0-.922,3.984c0,1.957.393,3.293,1.2,4.146a3.844,3.844,0,0,0,2.809,1.174h.023l1.127-.047a3.285,3.285,0,0,0,2-.53,2.3,2.3,0,0,0,.692-1.816l-.046-8.337Zm-42.576,13.816c-1.843-1.566-2.763-4.513-2.786-8.751-.023-3.639.876-6.287,2.649-7.83a8.546,8.546,0,0,1,5.825-1.863l5.964-.069-.023-2.9a5.327,5.327,0,0,0-1.083-3.522,4.809,4.809,0,0,0-4.029-1.659h-.047l-6.838.07-.023-4.652,9.394-.069h.07a8.684,8.684,0,0,1,6.539,2.419c1.566,1.612,2.349,4.168,2.372,7.574l.07,17.523a5.4,5.4,0,0,1-1.152,3.962c-.76.783-2.21,1.176-4.282,1.2l-6.861.07C5674.639,9247.357,5672.659,9246.874,5671.483,9245.861Zm7.921-13.816a3.748,3.748,0,0,0-3.153,1.357,6.539,6.539,0,0,0-.922,3.984c0,1.957.393,3.293,1.2,4.146a3.851,3.851,0,0,0,2.812,1.174h.023l1.127-.047a3.284,3.284,0,0,0,2-.53,2.3,2.3,0,0,0,.692-1.816l-.046-8.337Zm-37.325,15.289h-.07a4.081,4.081,0,0,1-4.122-2.832l-10.593-29.657,6.241-.023,7.828,23.855c.253.783.486.874.692.874.207-.021.437-.091.69-.874l7.831-23.855,6.285.023-10.593,29.681a4.062,4.062,0,0,1-4.122,2.809Zm17.408-32.7,6.471-.025.137,32.675-6.471.023Zm68.62,32.649v-5.158l.07-17.523c.021-3.406.8-5.938,2.37-7.574a8.69,8.69,0,0,1,6.564-2.419h7l-.025,4.651h-4.419a4.848,4.848,0,0,0-4.031,1.659,5.368,5.368,0,0,0-1.081,3.522l-.023,2.9v19.939Zm-138.023,0v-5.158l.07-17.523c.023-3.406.806-5.938,2.37-7.574a8.692,8.692,0,0,1,6.564-2.419h7l-.023,4.675-4.375-.023h-.046a4.839,4.839,0,0,0-4.029,1.659,5.356,5.356,0,0,0-1.083,3.522l-.023,2.9v19.939Z" transform="translate(-5496 -8950)"/>
  </g>
</svg>
